<svg width="50px" version="1.1" class="logo" xmlns="http://www.w3.org/2000/svg" xmlns:xlink="http://www.w3.org/1999/xlink" x="0px" y="0px" viewBox="0 0 110 100">
          <g class="logo__icon">
            <path fill="#FF4040" d="M61.9,100c-3.1-0.1-6.3-0.2-6.3-1V57.2l-36.9,21c-0.4,0.2-2.3-2.3-3.8-5c-1.5-2.7-2.9-5.6-2.6-5.8
              l48.9-27.9c0.3-0.2,2.4,0.2,4.1,1.2c1.7,1,3,2,3,2.8v55.6C68.3,99.8,61.9,100,61.9,100z"/>
            <path fill="#FF4040" d="M88.1,1c-1.8-1-3.4-1-3.8-0.8L0.4,48c-0.1,0.1,1,3,2.6,5.7c1.6,2.8,3.6,5.3,3.8,5.2l71.1-40.5l0,81
              c0,0.2,6.4,0.6,6.4,0.6c3.4,0,6.3-0.5,6.3-0.6l0-95.8C90.5,3.2,89.9,2.1,88.1,1z"/>
          </g>

        </svg>